<svg width="104" height="32" viewBox="0 0 104 32" fill="none" xmlns="http://www.w3.org/2000/svg">
<path fill-rule="evenodd" clip-rule="evenodd" d="M10.6661 31.9986H21.3326V21.332L10.6661 31.9986ZM10.666 21.332H21.3326L10.666 31.9986V21.332ZM21.3327 21.332H31.9993L21.3327 31.9987V21.332Z" fill="url(#paint0_linear_39_4096)"/>
<path d="M0 0H10.6667V10.6667H0V0Z" fill="url(#paint1_linear_39_4096)"/>
<path d="M10.666 0L21.3327 10.6667H10.666V0Z" fill="url(#paint2_linear_39_4096)"/>
<rect width="10.6667" height="21.3333" fill="url(#paint3_linear_39_4096)"/>
<path fill-rule="evenodd" clip-rule="evenodd" d="M21.334 10.668L32.0007 21.3346L21.334 32.0013V21.3346V10.668Z" fill="url(#paint4_linear_39_4096)"/>
<path d="M98.6139 26.072V10.52H103.51V26.072H98.6139ZM101.078 8.376C100.31 8.376 99.6699 8.12 99.1579 7.608C98.6672 7.07467 98.4219 6.43467 98.4219 5.688C98.4219 4.92 98.6672 4.28 99.1579 3.768C99.6699 3.256 100.31 3 101.078 3C101.846 3 102.475 3.256 102.966 3.768C103.457 4.28 103.702 4.92 103.702 5.688C103.702 6.43467 103.457 7.07467 102.966 7.608C102.475 8.12 101.846 8.376 101.078 8.376Z" fill="#7B3AEB"/>
<path d="M82.2168 23.1915L90.0248 13.3675H95.9768L88.1688 23.1915H82.2168ZM82.2168 26.0715V23.1915L85.7048 21.9755H95.7848V26.0715H82.2168ZM82.7928 14.6155V10.5195H95.9768V13.3675L92.5208 14.6155H82.7928Z" fill="#7B3AEB"/>
<path d="M73.3563 26.424C71.671 26.424 70.167 26.0826 68.8443 25.4C67.543 24.696 66.519 23.7253 65.7723 22.488C65.0257 21.2506 64.6523 19.8533 64.6523 18.296C64.6523 16.7386 65.015 15.352 65.7403 14.136C66.487 12.8986 67.4897 11.928 68.7483 11.224C70.007 10.52 71.4257 10.168 73.0043 10.168C74.5403 10.168 75.895 10.4986 77.0683 11.16C78.2417 11.8213 79.159 12.7386 79.8203 13.912C80.503 15.0853 80.8443 16.4293 80.8443 17.944C80.8443 18.2213 80.823 18.52 80.7803 18.84C80.759 19.1386 80.7057 19.4906 80.6203 19.896L67.2123 19.928V16.568L78.5403 16.536L76.4283 17.944C76.407 17.048 76.2683 16.312 76.0123 15.736C75.7563 15.1386 75.3723 14.6906 74.8603 14.392C74.3697 14.072 73.7617 13.912 73.0363 13.912C72.2683 13.912 71.5963 14.0933 71.0203 14.456C70.4657 14.7973 70.0283 15.288 69.7083 15.928C69.4097 16.568 69.2603 17.3466 69.2603 18.264C69.2603 19.1813 69.4203 19.9706 69.7403 20.632C70.0817 21.272 70.551 21.7733 71.1483 22.136C71.767 22.4773 72.4923 22.648 73.3243 22.648C74.0923 22.648 74.7857 22.52 75.4043 22.264C76.023 21.9866 76.567 21.5813 77.0363 21.048L79.7243 23.736C78.9563 24.632 78.0283 25.304 76.9403 25.752C75.8523 26.2 74.6577 26.424 73.3563 26.424Z" fill="#7B3AEB"/>
<path d="M45.392 26.0725V21.6565H50.992C52.3573 21.6565 53.552 21.3898 54.576 20.8565C55.6 20.3018 56.3893 19.5018 56.944 18.4565C57.4987 17.4111 57.776 16.1738 57.776 14.7445C57.776 13.3151 57.488 12.0885 56.912 11.0645C56.3573 10.0405 55.568 9.25114 54.544 8.69647C53.5413 8.1418 52.3573 7.86447 50.992 7.86447H45.232V3.48047H51.056C52.7627 3.48047 54.3307 3.7578 55.76 4.31247C57.2107 4.8458 58.4693 5.62447 59.536 6.64847C60.624 7.65114 61.456 8.8458 62.032 10.2325C62.6293 11.5978 62.928 13.1125 62.928 14.7765C62.928 16.4191 62.6293 17.9338 62.032 19.3205C61.456 20.7071 60.6347 21.9018 59.568 22.9045C58.5013 23.9071 57.2427 24.6858 55.792 25.2405C54.3627 25.7951 52.8053 26.0725 51.12 26.0725H45.392ZM42 26.0725V3.48047H47.024V26.0725H42Z" fill="#7B3AEB"/>
<defs>
<linearGradient id="paint0_linear_39_4096" x1="31.9993" y1="26.6654" x2="10.666" y2="26.6654" gradientUnits="userSpaceOnUse">
<stop stop-color="#7B3AEB"/>
<stop offset="1" stop-color="#4B1D92"/>
</linearGradient>
<linearGradient id="paint1_linear_39_4096" x1="5.33333" y1="0" x2="5.33333" y2="10.6667" gradientUnits="userSpaceOnUse">
<stop stop-color="#7B3AEB"/>
<stop offset="1" stop-color="#4B1D92"/>
</linearGradient>
<linearGradient id="paint2_linear_39_4096" x1="15.9993" y1="0" x2="15.9993" y2="10.6667" gradientUnits="userSpaceOnUse">
<stop stop-color="#7B3AEB"/>
<stop offset="1" stop-color="#4B1D92"/>
</linearGradient>
<linearGradient id="paint3_linear_39_4096" x1="5.33333" y1="0" x2="5.33333" y2="21.3333" gradientUnits="userSpaceOnUse">
<stop stop-color="#7B3AEB"/>
<stop offset="1" stop-color="#4B1D92"/>
</linearGradient>
<linearGradient id="paint4_linear_39_4096" x1="26.6673" y1="32.0013" x2="26.6673" y2="10.668" gradientUnits="userSpaceOnUse">
<stop stop-color="#7B3AEB"/>
<stop offset="1" stop-color="#4B1D92"/>
</linearGradient>
</defs>
</svg>
